Coordinates
version=1
nRows=19
nColumns=36
inDegrees=yes

Units are S.I. units (second, meters, Newtons, ...)
If the header above contains a line with 'inDegrees', this indicates whether rotational values are in degrees (yes) or radians (no).

endheader
time	pelvis_tilt	pelvis_list	pelvis_rotation	pelvis_tx	pelvis_ty	pelvis_tz	hip_flexion_r	hip_adduction_r	hip_rotation_r	knee_angle_r	knee_angle_r_beta	ankle_angle_r	subtalar_angle_r	mtp_angle_r	hip_flexion_l	hip_adduction_l	hip_rotation_l	knee_angle_l	knee_angle_l_beta	ankle_angle_l	subtalar_angle_l	mtp_angle_l	lumbar_extension	lumbar_bending	lumbar_rotation	arm_flex_r	arm_add_r	arm_rot_r	elbow_flex_r	pro_sup_r	arm_flex_l	arm_add_l	arm_rot_l	elbow_flex_l	pro_sup_l
      7.36666670	     -5.99135491	      1.86752984	     -1.86299474	      0.77624756	      0.76195421	      0.14172852	     56.46973117	     12.36722482	      1.08723517	     85.27898944	      1.48839915	     35.46469943	    -13.01717629	     -7.49999987	     64.01632492	     -5.62194760	      0.44132043	     13.80631521	      0.24096566	    -17.55306597	     -9.37550939	     -7.49999987	    -49.73839128	     -3.95813748	      3.16660723	     77.50134044	      5.24948698	     75.57931978	    134.00559483	     94.35101903	     81.23577746	      2.22381199	     85.66453124	    128.14821722	     84.12537216
      7.38333330	     -6.10732308	      1.87794454	     -1.81343427	      0.77167465	      0.76606002	      0.14442441	     56.55955139	     12.26173375	      1.29720979	     84.61107467	      1.47674184	     35.17559306	    -13.29998841	     -7.49999987	     64.22851855	     -5.55860651	      0.30742989	     14.23747461	      0.24849081	    -17.20570765	     -9.82817616	     -7.49999987	    -49.38937727	     -3.98083700	      3.22090355	     78.08077064	      5.51788685	     75.37071937	    133.85493715	     94.38013976	     81.76789358	      2.43387445	     84.99904206	    128.13535884	     84.16086859
      7.40000000	     -6.15002950	      1.74535838	     -1.60995353	      0.77255585	      0.76963877	      0.14361004	     56.37932183	     12.20114306	      1.22714632	     83.96199837	      1.46541332	     34.49542332	    -13.90995646	     -7.49999987	     64.32732491	     -5.42189830	      0.47657519	     14.64544983	      0.25561132	    -17.01099627	    -10.20464929	     -7.49999987	    -49.03664205	     -3.66611318	      3.40854304	     78.59029391	      5.55845141	     74.93590884	    133.78796237	     95.00992807	     81.65855138	      2.67193107	     84.22376255	    128.38747159	     85.72010931
      7.41666670	     -6.40592392	      1.71137423	     -1.14847800	      0.77253444	      0.77176860	      0.14229054	     56.17015892	     11.98710067	      1.15130347	     83.15645740	      1.45135398	     33.77532224	    -13.94967986	     -7.49999987	     64.57335585	     -5.00248862	      0.35844432	     14.65081584	      0.25570497	    -16.77235780	    -10.15544864	     -7.49999987	    -48.23416912	     -3.45394211	      3.34276831	     78.75020974	      5.54854865	     74.77725036	    133.79389571	     94.31368493	     81.38326198	      2.87870004	     84.58853696	    128.82350930	     85.08706141
      7.43333330	     -6.64855635	      1.41687117	     -1.33334674	      0.77320975	      0.77816561	      0.14196827	     55.75327585	     12.32592313	      1.25272282	     82.08103006	      1.43258423	     33.06658100	    -14.01066512	     -7.49999987	     64.49750086	     -5.21987412	      0.89469224	     14.41972115	      0.25167161	    -16.84135248	    -10.23624524	     -7.49999987	    -47.25460476	     -3.44492670	      3.40442881	     79.02432467	      5.91717243	     74.51575614	    133.99382171	     94.32596425	     80.95054817	      2.80580811	     85.00355663	    129.16870979	     85.14843675
      7.45000000	     -7.21146669	      1.19506913	     -1.26162597	      0.77692441	      0.77830805	      0.13832324	     55.86834878	     12.18323942	      1.14310449	     81.53028194	      1.42297186	     32.69033878	    -14.47378030	     -7.49999987	     65.09396993	     -5.04704163	      1.80650557	     14.86017376	      0.25935896	    -17.22016056	    -11.46889569	     -7.49999987	    -45.66786764	     -3.11060070	      3.23873754	     78.50716545	      6.18651134	     73.87114393	    134.00257463	     93.93575890	     80.48866244	      2.94163506	     84.67312651	    129.41271806	     84.70063579
      7.46666670	     -7.74793567	      1.24064650	     -1.24159198	      0.77293380	      0.78398043	      0.14111475	     55.92544666	     12.23196506	      1.52177208	     80.73028414	      1.40900926	     31.81941618	    -14.70781743	     -7.49999987	     65.31748558	     -4.98762966	      1.93942081	     14.74089315	      0.25727712	    -17.46123329	    -11.59385583	     -7.49999987	    -44.52272669	     -3.11832121	      3.25803938	     78.16119646	      6.17462908	     73.16096651	    134.26170503	     94.02797998	     80.40520181	      3.14232845	     84.07244745	    129.60963038	     84.76825009
      7.48333330	     -7.67694079	      1.07355800	     -1.56583023	      0.77249724	      0.79208578	      0.14104871	     55.19192493	     12.45129702	      1.76026686	     79.48256921	      1.38723253	     31.34579418	    -14.63467572	     -7.49999987	     64.81626956	     -5.31549604	      1.76747047	     14.52530088	      0.25351433	    -17.46980010	    -11.62608724	     -7.49999987	    -43.67185743	     -3.16489396	      3.46233261	     77.88251173	      6.29848144	     72.95439613	    134.04104875	     94.04405943	     79.86620951	      2.98474566	     83.98625151	    129.50852690	     84.76651833
      7.50000000	     -7.89931002	      1.13558628	     -1.20104652	      0.77367374	      0.80155088	      0.14669790	     54.42669445	     12.28977085	      1.86120240	     77.84722427	      1.35869038	     30.37822140	    -15.12323385	     -7.49999987	     64.73969821	     -5.18726122	      1.27722749	     14.93942126	      0.26074209	    -17.32448449	    -10.82827881	     -7.49999987	    -42.73752197	     -3.30598869	      2.92506292	     77.22681635	      6.82215847	     72.50090586	    133.78939811	     94.25060000	     79.35059071	      2.67742464	     84.10134924	    129.73825965	     84.82088281
      7.51666670	     -7.82917455	      1.07038751	     -0.76831370	      0.77803205	      0.80743499	      0.14339470	     53.15970423	     11.99430850	      1.80664491	     76.14037674	      1.32890027	     29.86916614	    -15.12154670	     -7.49999987	     64.30029855	     -4.99674068	      0.95991495	     14.72822897	      0.25705609	    -17.47513030	    -10.27678471	     -7.49999987	    -41.97169826	     -3.20096206	      2.71623920	     76.44376517	      6.73822484	     72.21021770	    133.67775500	     94.36751875	     79.15130879	      2.71566530	     83.93914890	    129.75751256	     84.82697611
      7.53333330	     -7.94955437	      1.11382932	     -0.15895700	      0.77862985	      0.81626856	      0.14152379	     51.95892818	     11.49183182	      1.85986660	     74.25996616	      1.29608091	     29.08081874	    -15.71686397	     -7.49999987	     64.19830377	     -4.46141533	      0.66773435	     14.87430745	      0.25960564	    -17.42544679	     -9.48450945	     -7.49999987	    -41.30875895	     -3.17403217	      2.33930083	     76.16471693	      6.60771778	     71.85369616	    133.57872839	     94.68347308	     78.58250104	      2.68921709	     85.09439815	    130.36906824	     84.90239006
      7.55000000	     -7.85382800	      0.89749868	     -0.01662560	      0.77813433	      0.82392504	      0.14061186	     50.54988454	     11.26883493	      1.88356787	     72.06000432	      1.25768433	     28.79267772	    -15.54948266	     -7.49999987	     63.22184628	     -4.29463400	      0.66637609	     13.70449191	      0.23918851	    -17.68030002	     -8.81698470	     -7.49999987	    -40.24163919	     -2.92909160	      2.58852925	     75.82745017	      6.68840965	     71.82185283	    133.41586528	     94.74380004	     77.86257780	      2.68308149	     85.52413701	    130.79404068	     84.93038983
      7.56666670	     -7.87316579	      0.72123399	      0.46394372	      0.78204330	      0.82903042	      0.13749129	     49.30892814	     10.73922667	      1.76982367	     70.10083628	      1.22349040	     28.52031245	    -15.60563417	     -7.49999987	     62.77544706	     -3.72131845	      0.81311264	     13.63245707	      0.23793126	    -17.32626124	     -8.43409808	     -7.49999987	    -39.18461008	     -2.31719611	      2.32227297	     75.55462964	      6.72166625	     71.50392705	    133.05522435	     94.10561122	     77.35678804	      2.50155953	     85.64627911	    131.08508891	     84.23535738
      7.58333330	     -7.97938991	      0.60648283	      0.52042867	      0.77683657	      0.83653267	      0.13979324	     48.51570699	     10.75836600	      1.96731790	     68.26941129	      1.19152601	     28.13588400	    -15.37777202	     -7.49999987	     62.26185182	     -3.71689843	      0.71072064	     12.96870311	      0.22634657	    -17.30707827	     -8.47533718	     -7.49999987	    -38.06779037	     -2.06450483	      2.59182959	     75.11212525	      6.65825683	     71.42066765	    132.77682216	     94.11934624	     76.77162828	      2.26134120	     85.79293373	    131.50825119	     84.24706034
      7.60000000	     -8.20206965	      0.57071708	      0.23385498	      0.77708344	      0.84552667	      0.14085759	     47.80806387	     10.79472122	      2.04921107	     66.49392566	      1.16053794	     27.74132724	    -15.13312436	     -7.49999987	     61.80445241	     -3.90123058	      0.83771903	     12.71244827	      0.22187408	    -17.11601908	     -8.66467372	     -7.49999987	    -36.87218527	     -2.21198806	      2.82980855	     75.03587397	      6.84734758	     71.12428924	    132.48173522	     94.06883619	     76.32670914	      2.32041845	     85.79474000	    132.00769733	     84.23036430
      7.61666670	     -8.19992282	      0.55162827	      0.35342026	      0.77798272	      0.86125855	      0.13932425	     46.25667470	     10.66772368	      2.35631272	     63.70683015	      1.11189394	     25.94443112	    -16.20412292	     -7.49999987	     60.48169806	     -3.85404440	      0.33914762	     11.93142774	      0.20824270	    -18.17873459	    -10.05900988	     -7.49999987	    -36.43031752	     -1.63782141	      2.84269789	     74.63178666	      7.48097045	     70.79503324	    131.55916520	     92.47413760	     75.68043754	      1.54102983	     85.19117467	    133.16515917	     82.93849223
      7.63333330	     -8.67463752	      0.64710743	      0.63311709	      0.78296847	      0.86548761	      0.13580093	     45.12208222	     10.17556499	      2.36593210	     61.11050977	      1.06657960	     25.01401818	    -16.41937721	     -7.49999987	     60.11358896	     -3.29949079	     -0.07222944	     11.84870769	      0.20679896	    -18.37286697	    -11.58100744	     -7.49999987	    -35.00881678	     -1.60947785	      2.59220910	     73.78245794	      7.45223839	     70.38782787	    131.48683369	     95.69983883	     74.85367301	      1.30564315	     84.86780163	    133.23168509	     84.90628527
      7.65000000	     -9.18810602	      0.67892972	      1.12327140	      0.78269858	      0.87375544	      0.14067440	     44.28619080	      9.84182039	      2.37179092	     58.81022235	      1.02643201	     24.08387551	    -16.45211928	     -7.49999987	     59.57241488	     -2.89466397	      0.07952857	     11.40250752	      0.19901130	    -18.43033228	    -11.63708066	     -7.49999987	    -33.59673974	     -1.66036059	      2.43134816	     73.03826303	      7.49520399	     70.04939222	    131.69815492	     95.69478262	     73.89070973	      1.50167746	     84.94923742	    133.70651951	     84.91445845
      7.66666670	     -9.85691448	      0.74203278	      1.84986718	      0.78693204	      0.88047264	      0.13741638	     43.85808002	      9.31379039	      2.15407709	     57.02828954	      0.99533142	     23.00155838	    -17.17617730	     -7.49999987	     59.55732445	     -2.17395910	      0.86750342	     11.90411917	      0.20776607	    -18.64902508	    -12.69914259	     -7.49999987	    -31.81575242	     -1.69130338	      1.92782694	     71.88347331	      7.68233381	     69.77497422	    131.71668643	     95.74132607	     73.11213897	      1.67827551	     83.61245323	    133.05699055	     84.72672041
